<svg xmlns="http://www.w3.org/2000/svg" width="24" height="24" viewBox="0 0 24 24">
  <defs>
    <rect id="rect-1" width="24" height="24" x="0" y="0"/>
  </defs>
  <g>
    <rect width="24" height="24" x="0" y="0" fill="none" rx="0" ry="0"/>
    <path fill="rgb(239,161,75)" fill-rule="evenodd" d="M17 4v1h2c.55228424 0 1 .44771528 1 1v13c0 .55228424-.44771576 1-1 1H5c-.55228472 0-1-.44771576-1-1V6c0-.55228472.44771528-1 1-1h1V4c0-.55228472.44771528-1 1-1 .55228472 0 1 .44771528 1 1v1h7V4c0-.55228472.4477148-1 1-1 .55228424 0 1 .44771528 1 1zM7 9c-.55228472 0-1 .4477148-1 1v7c0 .55228424.44771528 1 1 1h10c.55228424 0 1-.44771576 1-1v-7c0-.5522852-.44771576-1-1-1H7z"/>
    <path fill="rgb(203,106,0)" fill-rule="evenodd" d="M8 12c0-.55228475.44771525-1 1-1h2c.55228475 0 1 .44771525 1 1v2c0 .55228475-.44771525 1-1 1H9c-.55228475 0-1-.44771525-1-1v-2z"/>
  </g>
</svg>
