<svg xmlns="http://www.w3.org/2000/svg" width="24" height="24" viewBox="0 0 24 24">
  <defs>
    <rect id="rect-1" width="24" height="24" x="0" y="0"/>
  </defs>
  <g>
    <rect width="24" height="24" x="0" y="0" fill="none" rx="0" ry="0"/>
    <g transform="translate(3 3.05489527)">
      <path fill="rgb(203,106,0)" fill-rule="evenodd" d="M9 17.94510473c-2.12477902 0-4.07758358-.7363102-5.61717566-1.96769256l4.32345927-4.32482246c.3917115.1875091.83045122.29251502 1.29371639.29251502 1.30588222 0 2.41688515-.83437743 2.82897577-1.99909927l6.11601854-.00020525C17.44723384 14.4454158 13.632315 17.94510473 9 17.94510473z"/>
      <path fill="rgb(239,161,75)" fill-rule="evenodd" d="M17.9451046 7.94540787l-6.11577892-.0002141c-.30128003-.85248518-.97692967-1.52813483-1.82941437-1.82941485L9.99969673 0c4.08116722.45101056 7.33994675 3.63087273 7.91131783 7.67456913l.03409004.27083874zM7.9993043.00011042L7.99909924 6.1161294C6.8343773 6.5282197 6 7.63922262 6 8.9451046c0 .46287632.10482931.901268.29204226 1.29272938L1.9676926 14.56228065C.73631018 13.02268887 0 11.0698843 0 8.9451046 0 4.31278992 3.49968886.4978709 7.9993043.00011042z"/>
    </g>
  </g>
</svg>
