<svg xmlns="http://www.w3.org/2000/svg" width="24" height="24" viewBox="0 0 24 24">
  <defs>
    <rect id="rect-1" width="24" height="24" x="0" y="0"/>
  </defs>
  <path fill="rgb(239,161,75)" fill-rule="evenodd" d="M6 3c-1.1045695 0-2 .8954305-2 2v1.0632501c0 .5935597.26364602 1.15645492.7196312 1.53644257l4.5607376 3.80061466C9.73635398 11.78029498 10 12.34319021 10 12.9367499v5.23482299c0 1.7818097 2.15428384 2.67414328 3.41421356 1.41421356C13.78928632 19.21071368 14 18.70200585 14 18.17157288v-5.23482299c0-.59355968.26364602-1.1564549.7196312-1.53644256l4.5607376-3.80061466C19.73635398 7.21970502 20 6.65680979 20 6.0632501V5c0-1.1045695-.8954305-2-2-2H6z"/>
</svg>
