<svg xmlns="http://www.w3.org/2000/svg" width="24" height="24" viewBox="0 0 24 24">
  <g transform="translate(2 2)">
    <path fill="rgb(203,106,0)" fill-rule="evenodd" d="M0 10C0 4.48000002 4.48000002 0 10 0c5.52000046 0 10 4.48000002 10 10 0 5.52000046-4.47999954 10-10 10-5.51999998 0-10-4.47999954-10-10zm2 0c0 4.40999985 3.59000015 8 8 8s8-3.59000015 8-8-3.59000015-8-8-8-8 3.59000015-8 8z"/>
    <path fill="rgb(239,161,75)" fill-rule="evenodd" d="M10 7c-.5522852 0-1-.44771528-1-1 0-.55228472.4477148-1 1-1 .55228424 0 1 .44771528 1 1 0 .55228472-.44771576 1-1 1zm0 8c-.5522852 0-1-.44771576-1-1v-4c0-.5522852.4477148-1 1-1 .55228424 0 1 .4477148 1 1v4c0 .55228424-.44771576 1-1 1z"/>
  </g>
</svg>
