<svg xmlns="http://www.w3.org/2000/svg" width="28" height="24" viewBox="0 0 28 24">
  <defs>
    <rect id="rect-1" width="24" height="24" x="0" y="0"/>
  </defs>
  <g>
    <rect width="24" height="24" x="0" y="0" fill="none" rx="0" ry="0"/>
    <path fill="rgb(203,106,0)" fill-rule="evenodd" d="M9.9634676 5c-.3000002 0-.5-.0999999-.69999981-.3000002l-1-.99999975C7.76346779 3.0999999 7.96346759 2 8.96346759 2h6c1 0 1.3000002 1.0999999.69999982 1.70000005l-1 .99999976C14.4634676 4.9000001 14.26346779 5 13.9634676 5h-4zm3.00000095 2c.39999962 0 .79999924.3000002.89999962.6999998l2 11.00000096c.20000076.29999924.10000038.69999886-.20000076 1l-3 3C12.46346855 22.89999962 12.26346779 23 11.96346855 23c-.30000019 0-.5-.10000038-.70000076-.29999924l-3-3c-.19999981-.20000076-.29999972-.60000038-.19999981-1l2-11.00000095c.10000038-.39999962.5-.69999981.90000057-.69999981h2z"/>
    <path fill="rgb(239,161,75)" fill-rule="evenodd" d="M28 0v24H16V0h12z"/>
  </g>
</svg>
