<svg xmlns="http://www.w3.org/2000/svg" width="24" height="24" viewBox="0 0 24 24">
  <defs>
    <rect id="rect-1" width="24" height="24" x="0" y="0"/>
  </defs>
  <g>
    <rect width="24" height="24" x="0" y="0" fill="none" rx="0" ry="0"/>
    <path fill="rgb(239,161,75)" fill-rule="evenodd" d="M10 13c0-.55191517.44808483-1 1-1s1 .44808483 1 1-.44808483 1-1 1-1-.44808483-1-1zm7.77942467-.04081345l.01463318.04467297C17.92822265 13.47954655 18 13.98139095 18 14.5c0 3.03756523-2.46243382 5.5-5.5 5.5S7 17.53756523 7 14.5c0-.1648922.0072565-.32808876.02146673-.48928833 3.3648572 1.67572403 4.83778525.82862473 6.3729024-.05424118 1.10274887-.63420391 2.23758792-1.28686428 4.12887764-1.03606606l.2561779.03878212zM7.02146673 14.01071167l.00000286-.00003433L7 14c.007164.003582.0143199.00715256.02146673.01071167z"/>
    <path fill="rgb(203,106,0)" fill-rule="evenodd" d="M15 3h1c.55228424 0 1 .44771528 1 1 0 .55228472-.44771576 1-1 1h-1v4h-2V5h-1v4h-2V5H9c-.5522852 0-1-.44771528-1-1 0-.55228472.4477148-1 1-1h6z"/>
  </g>
</svg>
