<svg xmlns="http://www.w3.org/2000/svg" width="24" height="24" viewBox="0 0 24 24">
  <defs>
    <rect id="rect-1" width="24" height="24" x="0" y="0"/>
  </defs>
  <g transform="translate(3 3)">
    <path fill="rgb(239,161,75)" fill-rule="evenodd" d="M8 4c.55228424 0 1 .44771528 1 1 0 .55228472-.44771576 1-1 1-1.10456944 0-2 .89543056-2 2 0 .55228424-.44771528 1-1 1-.55228472 0-1-.44771576-1-1 0-2.20913887 1.79086113-4 4-4zm5.79289341 11.20710659c-.39052486-.39052391-.39052486-1.02368927 0-1.41421318.36048412-.36048412.92771435-.38821411 1.32000637-.08318901l.09420681.08318901 3.00000095 2.99999905c.39052391.39052581.39052391 1.02368927 0 1.41421508-.36048507.36048317-.9277153.3882122-1.32000732.0831871l-.09420776-.0831871-2.99999905-3.00000095z"/>
    <path fill="rgb(203,106,0)" fill-rule="evenodd" d="M0 7.5C0 3.35786438 3.35786438 0 7.5 0 11.64213562 0 15 3.35786438 15 7.5c0 4.14213562-3.35786438 7.5-7.5 7.5C3.35786438 15 0 11.64213562 0 7.5zm13 0C13 4.46243382 10.53756618 2 7.5 2S2 4.46243382 2 7.5 4.46243382 13 7.5 13 13 10.53756618 13 7.5z"/>
  </g>
</svg>
