<svg xmlns="http://www.w3.org/2000/svg" width="24" height="24" viewBox="0 0 24 24">
  <defs>
    <rect id="rect-1" width="24" height="24" x="0" y="0"/>
  </defs>
  <g>
    <rect width="24" height="24" x="0" y="0" fill="none" rx="0" ry="0"/>
    <path fill="rgb(239,161,75)" fill-rule="evenodd" d="M14.2 15.43436178l-2.7-2c.9-.7 1.5-1.7 1.5-2.9v-.8c0-1.9-1.4-3.6-3.3-3.7-2-.1-3.7 1.5-3.7 3.5v1c0 1.2.6 2.2 1.5 2.9l-2.7 2.1c-.5.4-.8 1-.8 1.6v1.9c0 .6.4 1 1 1h9c.6 0 1-.4 1-1v-2c0-.6-.3-1.2-.8-1.6z"/>
    <path fill="rgb(203,106,0)" fill-rule="evenodd" d="M19.1 10.43436178l-1.8-1.2c.4-.4.7-1 .7-1.7v-.9c0-1.2-.9-2.4-2.1-2.6-1.2-.2-2.2.5-2.7 1.4 1.1 1 1.8 2.4 1.8 4v1c0 .9-.2 1.8-.6 2.5 0 0 1.2.9 1.2 1H19c.6 0 1-.4 1-1v-.8c0-.7-.3-1.3-.9-1.7z"/>
  </g>
</svg>
