<svg xmlns="http://www.w3.org/2000/svg" width="24" height="24" viewBox="0 0 24 24">
  <defs>
    <rect id="rect-1" width="24" height="24" x="0" y="0"/>
  </defs>
  <g>
    <rect width="24" height="24" x="0" y="0" fill="none" rx="0" ry="0"/>
    <path fill="rgb(239,161,75)" fill-rule="evenodd" d="M10 19V5c0-.55228472.4477148-1 1-1h2c.55228424 0 1 .44771528 1 1v14c0 .55228424-.44771576 1-1 1h-2c-.5522852 0-1-.44771576-1-1zm-6 0v-9c0-.5522852.44771528-1 1-1h2c.55228472 0 1 .4477148 1 1v9c0 .55228424-.44771528 1-1 1H5c-.55228472 0-1-.44771576-1-1z"/>
    <path fill="rgb(203,106,0)" fill-rule="evenodd" d="M16 14c0-.55228475.44771525-1 1-1h2c.55228475 0 1 .44771525 1 1v5c0 .55228475-.44771525 1-1 1h-2c-.55228475 0-1-.44771525-1-1v-5z"/>
  </g>
</svg>
