<svg xmlns="http://www.w3.org/2000/svg" width="24" height="24" viewBox="0 0 24 24">
  <g>
    <rect width="24" height="24" x="0" y="0" fill="none" rx="0" ry="0"/>
    <path fill="rgb(239,161,75)" fill-rule="evenodd"/>
    <path fill="rgb(203,106,0)" fill-rule="evenodd" d="M17 7v1c0 .55228424-.44771576 1-1 1-.5522852 0-1-.44771576-1-1V4c0-.55228472.4477148-1 1-1 .55228424 0 1 .44771528 1 1v1h2c.55228424 0 1 .44771528 1 1 0 .55228472-.44771576 1-1 1h-2zM5 7c-.55228472 0-1-.44771528-1-1 0-.55228472.44771528-1 1-1h7c.5522852 0 1 .44771528 1 1 0 .55228472-.4477148 1-1 1H5z"/>
  </g>
</svg>
